<mxfile host="app.diagrams.net" agent="Mozilla/5.0 (Windows NT 10.0; Win64; x64) AppleWebKit/537.36 (KHTML, like Gecko) Chrome/132.0.0.0 Safari/537.36 OPR/117.0.0.0" version="26.1.2">
  <diagram id="R2lEEEUBdFMjLlhIrx00" name="Page-1">
    <mxGraphModel dx="1393" dy="752" grid="1" gridSize="10" guides="1" tooltips="1" connect="1" arrows="1" fold="1" page="1" pageScale="1" pageWidth="850" pageHeight="1100" background="none" math="0" shadow="0" extFonts="Permanent Marker^https://fonts.googleapis.com/css?family=Permanent+Marker">
      <root>
        <mxCell id="0" />
        <mxCell id="1" parent="0" />
        <mxCell id="xbsHmF4L1ZmsfDJzh0Yu-1" value="Conta Pendente" style="rounded=0;whiteSpace=wrap;html=1;" vertex="1" parent="1">
          <mxGeometry x="610" y="80" width="120" height="80" as="geometry" />
        </mxCell>
        <mxCell id="xbsHmF4L1ZmsfDJzh0Yu-6" value="Telefone" style="ellipse;whiteSpace=wrap;html=1;" vertex="1" parent="1">
          <mxGeometry x="70" y="50" width="100" height="60" as="geometry" />
        </mxCell>
        <mxCell id="xbsHmF4L1ZmsfDJzh0Yu-13" style="edgeStyle=orthogonalEdgeStyle;rounded=0;orthogonalLoop=1;jettySize=auto;html=1;exitX=1;exitY=0;exitDx=0;exitDy=0;entryX=0;entryY=0.5;entryDx=0;entryDy=0;" edge="1" parent="1" source="xbsHmF4L1ZmsfDJzh0Yu-7" target="xbsHmF4L1ZmsfDJzh0Yu-9">
          <mxGeometry relative="1" as="geometry">
            <Array as="points">
              <mxPoint x="155" y="120" />
            </Array>
          </mxGeometry>
        </mxCell>
        <mxCell id="xbsHmF4L1ZmsfDJzh0Yu-7" value="Idade" style="ellipse;whiteSpace=wrap;html=1;" vertex="1" parent="1">
          <mxGeometry x="70" y="130" width="100" height="60" as="geometry" />
        </mxCell>
        <mxCell id="xbsHmF4L1ZmsfDJzh0Yu-14" style="edgeStyle=orthogonalEdgeStyle;rounded=0;orthogonalLoop=1;jettySize=auto;html=1;exitX=0.5;exitY=1;exitDx=0;exitDy=0;entryX=0.5;entryY=0;entryDx=0;entryDy=0;" edge="1" parent="1" source="xbsHmF4L1ZmsfDJzh0Yu-8" target="xbsHmF4L1ZmsfDJzh0Yu-9">
          <mxGeometry relative="1" as="geometry" />
        </mxCell>
        <mxCell id="xbsHmF4L1ZmsfDJzh0Yu-8" value="Nome" style="ellipse;whiteSpace=wrap;html=1;" vertex="1" parent="1">
          <mxGeometry x="200" y="10" width="100" height="60" as="geometry" />
        </mxCell>
        <mxCell id="xbsHmF4L1ZmsfDJzh0Yu-9" value="Cliente" style="rounded=0;whiteSpace=wrap;html=1;" vertex="1" parent="1">
          <mxGeometry x="190" y="90" width="120" height="60" as="geometry" />
        </mxCell>
        <mxCell id="xbsHmF4L1ZmsfDJzh0Yu-15" style="edgeStyle=orthogonalEdgeStyle;rounded=0;orthogonalLoop=1;jettySize=auto;html=1;exitX=0.5;exitY=0;exitDx=0;exitDy=0;entryX=0.5;entryY=1;entryDx=0;entryDy=0;" edge="1" parent="1" source="xbsHmF4L1ZmsfDJzh0Yu-10" target="xbsHmF4L1ZmsfDJzh0Yu-9">
          <mxGeometry relative="1" as="geometry" />
        </mxCell>
        <mxCell id="xbsHmF4L1ZmsfDJzh0Yu-10" value="EndereÃ§o" style="ellipse;whiteSpace=wrap;html=1;" vertex="1" parent="1">
          <mxGeometry x="200" y="170" width="100" height="60" as="geometry" />
        </mxCell>
        <mxCell id="xbsHmF4L1ZmsfDJzh0Yu-12" style="edgeStyle=orthogonalEdgeStyle;rounded=0;orthogonalLoop=1;jettySize=auto;html=1;exitX=1;exitY=1;exitDx=0;exitDy=0;" edge="1" parent="1" source="xbsHmF4L1ZmsfDJzh0Yu-6" target="xbsHmF4L1ZmsfDJzh0Yu-9">
          <mxGeometry relative="1" as="geometry">
            <Array as="points">
              <mxPoint x="155" y="120" />
            </Array>
          </mxGeometry>
        </mxCell>
        <mxCell id="xbsHmF4L1ZmsfDJzh0Yu-16" value="Produto" style="rounded=0;whiteSpace=wrap;html=1;" vertex="1" parent="1">
          <mxGeometry x="190" y="370" width="120" height="60" as="geometry" />
        </mxCell>
        <mxCell id="xbsHmF4L1ZmsfDJzh0Yu-22" style="edgeStyle=orthogonalEdgeStyle;rounded=0;orthogonalLoop=1;jettySize=auto;html=1;exitX=0.5;exitY=1;exitDx=0;exitDy=0;entryX=0.5;entryY=0;entryDx=0;entryDy=0;" edge="1" parent="1" source="xbsHmF4L1ZmsfDJzh0Yu-18" target="xbsHmF4L1ZmsfDJzh0Yu-16">
          <mxGeometry relative="1" as="geometry" />
        </mxCell>
        <mxCell id="xbsHmF4L1ZmsfDJzh0Yu-18" value="Quantidade em Estoque" style="ellipse;whiteSpace=wrap;html=1;" vertex="1" parent="1">
          <mxGeometry x="200" y="280" width="100" height="60" as="geometry" />
        </mxCell>
        <mxCell id="xbsHmF4L1ZmsfDJzh0Yu-23" style="edgeStyle=orthogonalEdgeStyle;rounded=0;orthogonalLoop=1;jettySize=auto;html=1;exitX=1;exitY=0.5;exitDx=0;exitDy=0;entryX=0;entryY=0.5;entryDx=0;entryDy=0;" edge="1" parent="1" source="xbsHmF4L1ZmsfDJzh0Yu-20" target="xbsHmF4L1ZmsfDJzh0Yu-16">
          <mxGeometry relative="1" as="geometry" />
        </mxCell>
        <mxCell id="xbsHmF4L1ZmsfDJzh0Yu-20" value="Tipo" style="ellipse;whiteSpace=wrap;html=1;" vertex="1" parent="1">
          <mxGeometry x="50" y="410" width="100" height="60" as="geometry" />
        </mxCell>
        <mxCell id="xbsHmF4L1ZmsfDJzh0Yu-24" style="edgeStyle=orthogonalEdgeStyle;rounded=0;orthogonalLoop=1;jettySize=auto;html=1;exitX=0.5;exitY=0;exitDx=0;exitDy=0;entryX=0.5;entryY=1;entryDx=0;entryDy=0;" edge="1" parent="1" source="xbsHmF4L1ZmsfDJzh0Yu-21" target="xbsHmF4L1ZmsfDJzh0Yu-16">
          <mxGeometry relative="1" as="geometry" />
        </mxCell>
        <mxCell id="xbsHmF4L1ZmsfDJzh0Yu-21" value="Marca" style="ellipse;whiteSpace=wrap;html=1;" vertex="1" parent="1">
          <mxGeometry x="200" y="460" width="100" height="60" as="geometry" />
        </mxCell>
        <mxCell id="xbsHmF4L1ZmsfDJzh0Yu-26" style="edgeStyle=orthogonalEdgeStyle;rounded=0;orthogonalLoop=1;jettySize=auto;html=1;exitX=1;exitY=0.5;exitDx=0;exitDy=0;entryX=0;entryY=0.5;entryDx=0;entryDy=0;" edge="1" parent="1" source="xbsHmF4L1ZmsfDJzh0Yu-25" target="xbsHmF4L1ZmsfDJzh0Yu-16">
          <mxGeometry relative="1" as="geometry" />
        </mxCell>
        <mxCell id="xbsHmF4L1ZmsfDJzh0Yu-25" value="Valor" style="ellipse;whiteSpace=wrap;html=1;" vertex="1" parent="1">
          <mxGeometry x="50" y="330" width="100" height="60" as="geometry" />
        </mxCell>
      </root>
    </mxGraphModel>
  </diagram>
</mxfile>
